<svg xmlns="http://www.w3.org/2000/svg" viewBox="0 0 135.07 41.85"><defs><style>.cls-1{fill:#006701;}.cls-2{fill:#e3020a;}</style></defs><title>logo-itntiAsset 2</title><g id="Layer_2" data-name="Layer 2"><g id="Layer_1-2" data-name="Layer 1"><path class="cls-1" d="M1,23.17V0H7.06V23.17Z"/><path class="cls-1" d="M27.53,23.17V3.48H16.73V0H44.39V3.48H33.59V23.17Z"/><path class="cls-1" d="M76.32,0H82V23.17H77.45L59.7,7V23.17H54.06V0h4.51L76.32,16.14Z"/><path class="cls-1" d="M102.48,23.17V3.48H91.68V0h27.66V3.48h-10.8V23.17Z"/><path class="cls-1" d="M129,23.17V0h6.06V23.17Z"/><path class="cls-1" d="M1.72,39A5.2,5.2,0,0,1,0,38.21l.7-1.56a5.43,5.43,0,0,0,3.21,1,2.78,2.78,0,0,0,1.42-.3.93.93,0,0,0,.49-.84.83.83,0,0,0-.45-.74,6,6,0,0,0-1.62-.52,8.73,8.73,0,0,1-2.08-.64,2.68,2.68,0,0,1-1.13-.93,2.45,2.45,0,0,1-.36-1.37,2.68,2.68,0,0,1,.5-1.59,3.21,3.21,0,0,1,1.39-1.1,5,5,0,0,1,2.07-.4,6.57,6.57,0,0,1,2,.31,4.08,4.08,0,0,1,1.54.82L7,31.91a4.76,4.76,0,0,0-2.85-1,2.41,2.41,0,0,0-1.35.33,1.05,1.05,0,0,0-.49.91.85.85,0,0,0,.19.55,1.66,1.66,0,0,0,.63.38,8.37,8.37,0,0,0,1.26.35,6.86,6.86,0,0,1,2.73,1.08A2.19,2.19,0,0,1,8,36.33a2.61,2.61,0,0,1-1.08,2.21,5,5,0,0,1-3,.8A7.72,7.72,0,0,1,1.72,39Z"/><path class="cls-1" d="M9.23,29h2.26v2H9.23ZM9.3,39.22V32.34h2.11v6.88Z"/><path class="cls-1" d="M23.18,32.89a3.38,3.38,0,0,1,.58,2.18v4.15H21.64V35.14a1.88,1.88,0,0,0-.21-1,.86.86,0,0,0-.74-.3,1.15,1.15,0,0,0-.94.42,1.85,1.85,0,0,0-.33,1.17v3.8H17.3V35.14a1.88,1.88,0,0,0-.21-1,.86.86,0,0,0-.74-.3,1.15,1.15,0,0,0-.94.42,1.85,1.85,0,0,0-.33,1.17v3.8H13V32.34H15v.93a2.18,2.18,0,0,1,.86-.82,2.76,2.76,0,0,1,1.24-.28,2,2,0,0,1,2.05,1.28,2.44,2.44,0,0,1,.93-.93,2.64,2.64,0,0,1,1.33-.35A2.09,2.09,0,0,1,23.18,32.89Z"/><path class="cls-1" d="M31.11,32.63a2.93,2.93,0,0,1,1.08,1.27,4.37,4.37,0,0,1,.39,1.89,4.18,4.18,0,0,1-.39,1.86,2.83,2.83,0,0,1-1.07,1.24,2.89,2.89,0,0,1-1.58.44A2.79,2.79,0,0,1,28.27,39a2,2,0,0,1-.87-.8v3.5H25.28v-9.4h2.09v1a2.16,2.16,0,0,1,.88-.84,2.73,2.73,0,0,1,1.29-.3A2.81,2.81,0,0,1,31.11,32.63Zm-1,4.59a2.21,2.21,0,0,0,.41-1.43,2.37,2.37,0,0,0-.41-1.48,1.52,1.52,0,0,0-2.29,0,2.28,2.28,0,0,0-.41,1.47,2.24,2.24,0,0,0,.41,1.45,1.37,1.37,0,0,0,1.14.51A1.4,1.4,0,0,0,30.07,37.22Z"/><path class="cls-1" d="M33.8,39.22V29.35h2.11v9.87Z"/><path class="cls-1" d="M37.39,29h2.27v2H37.39Zm.07,10.18V32.34h2.12v6.88Z"/><path class="cls-1" d="M43.79,32.34h1.72v1.58H43.79v5.3H41.68v-5.3h-1.3V32.34h1.3a2.89,2.89,0,0,1,.84-2.19,4,4,0,0,1,2.5-.83l.77,0,.13,1.55-.66,0a2,2,0,0,0-1.14.3,1.1,1.1,0,0,0-.33.9Z"/><path class="cls-1" d="M51.42,32.36h2.07l-4.14,9.38H47.21l1.31-2.9-2.83-6.48h2.2l1.74,4.36Z"/><path class="cls-1" d="M60.21,32.9a3.32,3.32,0,0,1,.6,2.17v4.15H58.7v-4a1.62,1.62,0,0,0-.26-1,1,1,0,0,0-.8-.32,1.4,1.4,0,0,0-1.06.42,1.54,1.54,0,0,0-.4,1.12v3.85H54.07V32.34h2.06v1a2.33,2.33,0,0,1,.94-.85,2.81,2.81,0,0,1,1.31-.3A2.22,2.22,0,0,1,60.21,32.9Z"/><path class="cls-1" d="M69.34,32.34v6.13a3.23,3.23,0,0,1-1,2.52,4.1,4.1,0,0,1-2.82.86,6.93,6.93,0,0,1-1.77-.23A5.44,5.44,0,0,1,62.31,41l.56-1.45a5.55,5.55,0,0,0,2.65.73c1.16,0,1.74-.55,1.74-1.64v-.76a2,2,0,0,1-.89.84,2.72,2.72,0,0,1-1.31.31,3,3,0,0,1-1.59-.42,2.89,2.89,0,0,1-1.09-1.2,4.35,4.35,0,0,1,0-3.6,2.91,2.91,0,0,1,2.68-1.63,2.79,2.79,0,0,1,1.29.3,2.13,2.13,0,0,1,.89.84v-1Zm-2.51,4.59a2.36,2.36,0,0,0,0-2.66,1.62,1.62,0,0,0-2.32,0,2,2,0,0,0-.42,1.33,2,2,0,0,0,.42,1.33,1.64,1.64,0,0,0,2.32,0Z"/><path class="cls-1" d="M76.2,39a5.2,5.2,0,0,1-1.72-.83l.7-1.56a5.42,5.42,0,0,0,3.2,1,2.82,2.82,0,0,0,1.43-.3.93.93,0,0,0,.49-.84.83.83,0,0,0-.45-.74,6.09,6.09,0,0,0-1.62-.52,8.73,8.73,0,0,1-2.08-.64A2.68,2.68,0,0,1,75,33.68a2.45,2.45,0,0,1-.36-1.37,2.68,2.68,0,0,1,.5-1.59,3.21,3.21,0,0,1,1.39-1.1,5,5,0,0,1,2.07-.4,6.57,6.57,0,0,1,2,.31,4.15,4.15,0,0,1,1.54.82l-.7,1.56a4.76,4.76,0,0,0-2.85-1,2.41,2.41,0,0,0-1.35.33,1.05,1.05,0,0,0-.49.91.85.85,0,0,0,.19.55,1.66,1.66,0,0,0,.63.38,8.54,8.54,0,0,0,1.25.35,6.91,6.91,0,0,1,2.74,1.08,2.18,2.18,0,0,1,.83,1.82,2.6,2.6,0,0,1-1.07,2.21,5,5,0,0,1-3,.8A7.72,7.72,0,0,1,76.2,39Z"/><path class="cls-1" d="M85.16,38.89a3.12,3.12,0,0,1-1.27-1.25,3.84,3.84,0,0,1-.45-1.9,3.8,3.8,0,0,1,.45-1.89,3,3,0,0,1,1.27-1.24,4.41,4.41,0,0,1,3.84,0,3,3,0,0,1,1.27,1.24,3.8,3.8,0,0,1,.45,1.89,3.84,3.84,0,0,1-.45,1.9A3.12,3.12,0,0,1,89,38.89a4.41,4.41,0,0,1-3.84,0Zm3.46-3.15a2.29,2.29,0,0,0-.4-1.48,1.39,1.39,0,0,0-1.14-.49c-1,0-1.54.66-1.54,2s.51,2,1.54,2S88.62,37.06,88.62,35.74Z"/><path class="cls-1" d="M91.94,39.22V29.35h2.11v9.87Z"/><path class="cls-1" d="M102.23,32.34v6.88h-2.06v-1a2.27,2.27,0,0,1-.85.81,2.54,2.54,0,0,1-1.18.28,2.45,2.45,0,0,1-1.94-.72,3.19,3.19,0,0,1-.64-2.18V32.34h2.12v4.13a1.3,1.3,0,0,0,.26.91,1,1,0,0,0,.79.3,1.3,1.3,0,0,0,1-.42,1.61,1.61,0,0,0,.38-1.11V32.34Z"/><path class="cls-1" d="M108.26,37.73l-.11,1.54a5.52,5.52,0,0,1-.81.06,3.22,3.22,0,0,1-2.29-.69,2.75,2.75,0,0,1-.72-2.08V33.92H103V32.34h1.31v-2h2.11v2h1.72v1.58h-1.72v2.62c0,.82.38,1.23,1.15,1.23A5.22,5.22,0,0,0,108.26,37.73Z"/><path class="cls-1" d="M109.06,29h2.27v2h-2.27Zm.07,10.18V32.34h2.11v6.88Z"/><path class="cls-1" d="M114.18,38.89a3.12,3.12,0,0,1-1.27-1.25,3.84,3.84,0,0,1-.45-1.9,3.8,3.8,0,0,1,.45-1.89,3,3,0,0,1,1.27-1.24,4.41,4.41,0,0,1,3.84,0,3,3,0,0,1,1.27,1.24,3.8,3.8,0,0,1,.45,1.89,3.84,3.84,0,0,1-.45,1.9A3.12,3.12,0,0,1,118,38.89a4.41,4.41,0,0,1-3.84,0Zm3.46-3.15a2.29,2.29,0,0,0-.4-1.48,1.37,1.37,0,0,0-1.14-.49c-1,0-1.54.66-1.54,2s.51,2,1.54,2S117.64,37.06,117.64,35.74Z"/><path class="cls-1" d="M127.1,32.9a3.27,3.27,0,0,1,.61,2.17v4.15h-2.12v-4a1.56,1.56,0,0,0-.26-1,1,1,0,0,0-.8-.32,1.4,1.4,0,0,0-1.06.42,1.54,1.54,0,0,0-.4,1.12v3.85H121V32.34H123v1a2.33,2.33,0,0,1,.94-.85,2.81,2.81,0,0,1,1.31-.3A2.22,2.22,0,0,1,127.1,32.9Z"/><path class="cls-1" d="M130.12,39.11a4.15,4.15,0,0,1-1.36-.62l.56-1.46a4.66,4.66,0,0,0,1.23.59,4.54,4.54,0,0,0,1.36.21,1.48,1.48,0,0,0,.76-.16.5.5,0,0,0,.27-.44.44.44,0,0,0-.19-.39,1.89,1.89,0,0,0-.7-.26l-1.12-.25a3,3,0,0,1-1.47-.69,1.74,1.74,0,0,1-.47-1.28,1.9,1.9,0,0,1,.37-1.14,2.57,2.57,0,0,1,1-.77,4.2,4.2,0,0,1,1.55-.28,4.62,4.62,0,0,1,1.44.23,4.38,4.38,0,0,1,1.26.63l-.56,1.4a3.71,3.71,0,0,0-2.15-.76,1.49,1.49,0,0,0-.77.17.52.52,0,0,0-.28.48.4.4,0,0,0,.17.35,1.76,1.76,0,0,0,.58.23l1.17.27a3.12,3.12,0,0,1,1.53.72,1.78,1.78,0,0,1,.48,1.31,1.81,1.81,0,0,1-.79,1.56,3.67,3.67,0,0,1-2.18.57A6.38,6.38,0,0,1,130.12,39.11Z"/><line x1="0.94" y1="26.38" x2="134.94" y2="26.38"/><rect class="cls-2" x="0.94" y="25.38" width="134" height="2"/></g></g></svg>